<svg width="44" height="42" viewBox="0 0 44 42" fill="none" xmlns="http://www.w3.org/2000/svg">
<g clip-path="url(#clip0_19_2040)">
<path fill-rule="evenodd" clip-rule="evenodd" d="M12.6085 38.5L18.3291 40.1251V38L18.7961 37.5H22.065V40V41.75H18.5626L14.243 39.75L12.6085 38.5Z" fill="#CDBDB2"/>
<path fill-rule="evenodd" clip-rule="evenodd" d="M31.2877 38.5L25.6839 40.1251V38L25.217 37.5H21.9481V40V41.75H25.4505L29.7699 39.75L31.2877 38.5Z" fill="#CDBDB2"/>
<path fill-rule="evenodd" clip-rule="evenodd" d="M18.7961 33.8751L18.3291 38L18.9127 37.5H24.9835L25.6839 38L25.217 33.8751L24.283 33.25L19.6132 33.3751L18.7961 33.8751Z" fill="#393939"/>
<path fill-rule="evenodd" clip-rule="evenodd" d="M15.6438 6L18.4457 13L19.73 33.3751H24.2829L25.6839 13L28.2523 6H15.6438Z" fill="#F89C35"/>
<path fill-rule="evenodd" clip-rule="evenodd" d="M3.38569 21.3751L0.116821 31.5L8.28899 31H13.5424V26.6251L13.3089 17.6251L12.1415 18.6251L3.38569 21.3751Z" fill="#F89D35"/>
<path fill-rule="evenodd" clip-rule="evenodd" d="M9.57312 22.5L19.1462 22.75L18.0956 28L13.5425 26.75L9.57312 22.5Z" fill="#D87C30"/>
<path fill-rule="evenodd" clip-rule="evenodd" d="M9.57312 22.6251L13.5425 26.6251V30.6251L9.57312 22.6251Z" fill="#EA8D3A"/>
<path fill-rule="evenodd" clip-rule="evenodd" d="M13.5425 26.75L18.2123 28L19.7301 33.3751L18.6793 34L13.5425 30.75V26.75Z" fill="#F89D35"/>
<path fill-rule="evenodd" clip-rule="evenodd" d="M13.5425 30.75L12.6085 38.5L18.7961 33.8751L13.5425 30.75Z" fill="#EB8F35"/>
<path fill-rule="evenodd" clip-rule="evenodd" d="M19.1462 22.75L19.73 33.3751L17.9788 27.9376L19.1462 22.75Z" fill="#EA8E3A"/>
<path fill-rule="evenodd" clip-rule="evenodd" d="M8.17212 30.8751L13.5424 30.75L12.6084 38.5L8.17212 30.8751Z" fill="#D87C30"/>
<path fill-rule="evenodd" clip-rule="evenodd" d="M2.68522 41.8751L12.6085 38.5L8.17214 30.8751L0.116821 31.5L2.68522 41.8751Z" fill="#EB8F35"/>
<path fill-rule="evenodd" clip-rule="evenodd" d="M18.4458 13L13.4258 17.5L9.57312 22.5L19.1462 22.8751L18.4458 13Z" fill="#E8821E"/>
<path fill-rule="evenodd" clip-rule="evenodd" d="M12.6085 38.5L18.7961 33.8751L18.3291 37.8751V40.1251L14.1263 39.25L12.6085 38.5Z" fill="#DFCEC3"/>
<path fill-rule="evenodd" clip-rule="evenodd" d="M31.2877 38.5L25.217 33.8751L25.6839 37.8751V40.1251L29.8868 39.25L31.2877 38.5Z" fill="#DFCEC3"/>
<path fill-rule="evenodd" clip-rule="evenodd" d="M16.5778 25L17.8621 27.8751L13.3089 26.6251L16.5778 25Z" fill="#393939"/>
<path fill-rule="evenodd" clip-rule="evenodd" d="M2.56836 0.125122L18.4457 13L15.7607 6.00001L2.56836 0.125122Z" fill="#E88F35"/>
<path fill-rule="evenodd" clip-rule="evenodd" d="M2.56833 0.125L0.466919 7L1.63437 14.5L0.817155 15L1.98461 16.125L1.05065 17L2.33484 18.25L1.51763 19L3.38555 21.5L12.1414 18.625C16.4221 14.9583 18.5235 13.0833 18.4457 13C18.3679 12.9167 13.0754 8.625 2.56833 0.125Z" fill="#8E5A30"/>
<path fill-rule="evenodd" clip-rule="evenodd" d="M40.5104 21.3751L43.7793 31.5L35.6071 31H30.3537V26.6251L30.5872 17.6251L31.7546 18.6251L40.5104 21.3751Z" fill="#F89D35"/>
<path fill-rule="evenodd" clip-rule="evenodd" d="M34.323 22.5L24.7499 22.75L25.8005 28L30.3537 26.75L34.323 22.5Z" fill="#D87C30"/>
<path fill-rule="evenodd" clip-rule="evenodd" d="M34.323 22.6251L30.3537 26.6251V30.6251L34.323 22.6251Z" fill="#EA8D3A"/>
<path fill-rule="evenodd" clip-rule="evenodd" d="M30.3536 26.75L25.6838 28L24.166 33.3751L25.2168 34L30.3536 30.75V26.75Z" fill="#F89D35"/>
<path fill-rule="evenodd" clip-rule="evenodd" d="M30.3536 30.75L31.2876 38.5L25.2168 34L30.3536 30.75Z" fill="#EB8F35"/>
<path fill-rule="evenodd" clip-rule="evenodd" d="M24.7499 22.75L24.1661 33.3751L25.9174 27.9376L24.7499 22.75Z" fill="#EA8E3A"/>
<path fill-rule="evenodd" clip-rule="evenodd" d="M35.724 30.8751L30.3537 30.75L31.2877 38.5L35.724 30.8751Z" fill="#D87C30"/>
<path fill-rule="evenodd" clip-rule="evenodd" d="M41.2109 41.8751L31.2877 38.5L35.724 30.8751L43.7793 31.5L41.2109 41.8751Z" fill="#EB8F35"/>
<path fill-rule="evenodd" clip-rule="evenodd" d="M25.4504 13L30.4703 17.5L34.323 22.5L24.7499 22.8751L25.4504 13Z" fill="#E8821E"/>
<path fill-rule="evenodd" clip-rule="evenodd" d="M27.3184 25L26.0341 27.8751L30.5872 26.6251L27.3184 25Z" fill="#393939"/>
<path fill-rule="evenodd" clip-rule="evenodd" d="M41.3278 0.125122L25.4504 13L28.1354 6.00001L41.3278 0.125122Z" fill="#E88F35"/>
<path fill-rule="evenodd" clip-rule="evenodd" d="M41.3278 0.125L43.4292 7L42.2617 14.5L43.079 15L41.9115 16.125L42.8455 17L41.5613 18.25L42.3785 19L40.5106 21.5L31.7547 18.625C27.474 14.9583 25.3726 13.0833 25.4504 13C25.5283 12.9167 30.8207 8.625 41.3278 0.125Z" fill="#8E5A30"/>
</g>
<defs>
<clipPath id="clip0_19_2040">
<rect width="44" height="42" fill="white"/>
</clipPath>
</defs>
</svg>
